PathFileType	4	(X/Y/Z)	../Python\walking\Walking12\task.trc
DataRate	CameraRate	NumFrames	NumMarkers	Units	OrigDataRate	OrigDataStartFrame	OrigNumFrames
200.000000	200.000000	4	30	mm	200.000000	159	426
Frame#	Time	CLAV			STRN			RASI			LASI			RTH1			RTH2			RTH3			RTB1			RTB2			RTB3			RD5M			RTOE			LTH1			LTH3			LTB1			LTB2			LTB3			LTOE			LD5M			LTH2			RHEE			T10			PE03			RPSI			PE02			LPSI			PE01			C7			RBAK			LHEE			
		X1	Y1	Z1	X2	Y2	Z2	X3	Y3	Z3	X4	Y4	Z4	X5	Y5	Z5	X6	Y6	Z6	X7	Y7	Z7	X8	Y8	Z8	X9	Y9	Z9	X10	Y10	Z10	X11	Y11	Z11	X12	Y12	Z12	X13	Y13	Z13	X14	Y14	Z14	X15	Y15	Z15	X16	Y16	Z16	X17	Y17	Z17	X18	Y18	Z18	X19	Y19	Z19	X20	Y20	Z20	X21	Y21	Z21	X22	Y22	Z22	X23	Y23	Z23	X24	Y24	Z24	X25	Y25	Z25	X26	Y26	Z26	X27	Y27	Z27	X28	Y28	Z28	X29	Y29	Z29	X30	Y30	Z30	

160	0.795	1333.929321289063	1415.102172851563	99.16794586181646	1393.00439453125	1225.160278320313	121.9358978271485	1362.190307617188	999.7373046875005	265.2617492675782	1385.93359375	1025.786376953125	-5.473348617553713	1299.729614257813	730.2470703125002	294.3839721679689	1240.6328125	713.3103027343752	284.1926879882814	1256.196899414063	666.026794433594	275.0986328125001	1139.618530273438	367.9253540039064	240.4246520996095	1078.00146484375	370.3093261718751	238.392547607422	1076.705078125	320.5036621093751	230.3318328857423	863.3837890625005	69.84214019775393	203.7725524902345	898.872436523438	48.05916595458987	161.9367980957032	1374.357177734375	718.1885375976565	-47.40001296997072	1414.1357421875	652.6262817382815	-27.86063957214357	1417.477783203125	356.1263122558595	1.749994277954102	1392.13671875	314.7889709472657	14.40454292297364	1445.752197265625	283.5852661132814	14.61674785614014	1604.612426757813	34.83642196655275	91.9844665527344	1563.287353515626	18.55834579467774	42.56981277465822	1356.571899414063	673.3294067382815	-35.48408126831056	829.0580444335942	231.8732452392579	152.7778015136719	1168.930541992188	1247.619018554688	112.9471588134766	1199.93896484375	1046.4306640625	98.75059509277349	1205.7529296875	1052.403930664063	174.2118072509766	1201.395263671875	1042.06005859375	149.7288970947266	1206.306762695313	1061.482055664063	74.21552276611331	1212.99658203125	1104.251342773438	128.3699645996094	1222.847045898438	1508.519409179688	82.67311096191409	1201.116821289063	1430.4140625	262.5970153808595	1393.150634765625	33.86430740356447	94.93331146240237	
161	0.8	1340.760986328125	1415.951416015625	99.13979339599615	1399.60546875	1225.8818359375	122.0585250854493	1368.41796875	1000.234680175782	264.9723510742189	1392.224853515625	1026.92041015625	-5.798274517059328	1308.921508789063	730.1848144531252	294.1473999023439	1250.213500976563	712.308776855469	283.3956604003907	1266.585693359375	665.192565917969	274.780487060547	1153.218627929688	367.6246643066407	240.967010498047	1091.68310546875	370.5662536621095	239.5070800781251	1089.839233398438	320.8748779296876	230.8703918457032	872.621459960938	73.8130798339844	204.9329528808595	907.5144653320317	50.51198959350589	163.4878234863282	1378.737670898438	718.726989746094	-47.71170043945314	1417.594848632813	652.679870605469	-27.99468421936037	1418.866943359375	356.2286987304689	1.525239109992982	1393.3662109375	315.0918884277345	14.46592521667481	1446.742797851563	283.5063476562501	14.28709506988526	1604.692382812501	34.7689552307129	91.9639587402344	1563.222534179688	18.51717567443848	42.4679527282715	1360.393920898438	674.090026855469	-35.92713165283205	840.8027954101567	236.2798614501954	153.8172454833985	1175.582397460938	1248.600952148438	112.7143783569337	1206.19482421875	1047.066284179688	98.65163421630865	1212.03076171875	1052.843017578125	174.1107177734376	1207.683837890625	1042.574340820313	149.6178131103516	1212.554077148438	1062.25439453125	74.17829132080081	1219.2353515625	1104.81298828125	128.416732788086	1229.704223632813	1509.409790039063	82.45314025878909	1207.731079101563	1431.439331054688	262.3557128906251	1393.079223632813	33.87170410156251	95.00444793701175	
162	0.805	1347.550415039063	1416.786865234375	99.1296005249024	1406.132080078125	1226.57373046875	122.1832733154297	1374.563354492188	1000.785949707032	264.7124938964845	1398.457885742188	1027.984375	-6.12150859832764	1317.989990234375	730.2500610351565	293.9581909179689	1259.702514648438	711.4458618164065	282.5889892578126	1276.882690429688	664.526794433594	274.4481201171876	1166.968017578125	367.4361877441407	241.4581146240236	1105.517333984375	370.8907775878907	240.585174560547	1103.1640625	321.3204345703126	231.3527374267579	882.5347290039067	77.7358322143555	206.2223358154298	917.0415039062505	52.99765777587893	165.2426300048829	1382.76611328125	719.1834716796877	-47.94391250610353	1420.708862304688	652.655944824219	-28.12396621704103	1420.1630859375	356.3032531738282	1.27746331691742	1394.517333984375	315.368133544922	14.51293373107911	1447.656494140625	283.410125732422	13.93224239349366	1604.771118164063	34.69292449951173	91.94110870361331	1563.170166015626	18.45483207702637	42.37059783935548	1363.874145507813	674.776550292969	-36.26585388183595	852.7655639648442	240.3637847900392	154.5695343017579	1182.162109375	1249.595581054688	112.4597930908204	1212.386596679688	1047.69482421875	98.51770782470709	1218.236572265625	1053.29296875	173.9701843261719	1213.90478515625	1043.094482421875	149.4737243652344	1218.739501953125	1063.007934570313	74.10263824462893	1225.415161132813	1105.372924804688	128.4145660400391	1236.5341796875	1510.305419921875	82.24955749511722	1214.29541015625	1432.453491210938	262.1225585937501	1393.013305664063	33.88914871215822	95.0666427612305	
163	0.8100000000000001	1354.296264648438	1417.608276367188	99.13578033447271	1412.5869140625	1227.238525390625	122.3074111938477	1380.634155273438	1001.391967773438	264.4795532226564	1404.63525390625	1028.979858398438	-6.44200420379639	1326.930541992188	730.4454345703127	293.8164062500001	1269.095092773438	710.7276000976565	281.7757873535157	1287.079223632813	664.0355224609377	274.1026611328126	1180.84423828125	367.3757934570314	241.9022674560548	1119.479125976563	371.3004455566407	241.6123046875001	1116.656982421875	321.852996826172	231.7847595214845	893.1169433593755	81.57226562500003	207.6325683593751	927.4314575195317	55.48462295532229	167.1866912841797	1386.495239257813	719.576843261719	-48.10855102539065	1423.559326171875	652.5874633789065	-28.25843429565431	1421.389404296875	356.3588867187501	1.007948398590088	1395.609130859375	315.6239624023439	14.53442096710206	1448.516235351563	283.3056945800782	13.56068420410157	1604.848510742188	34.60962677001955	91.91900634765628	1563.130615234376	18.37646484375001	42.27739715576173	1367.079467773438	675.401550292969	-36.51571655273439	864.9349975585942	244.1036529541017	155.0371856689454	1188.671997070313	1250.60009765625	112.1838760375977	1218.519409179688	1048.319702148438	98.35008239746099	1224.376708984375	1053.757080078125	173.7919921875001	1220.063720703125	1043.623413085938	149.2979736328126	1224.867919921875	1063.74560546875	73.98927307128909	1231.54150390625	1105.934448242188	128.3645935058594	1243.33544921875	1511.204467773438	82.062126159668	1220.809692382813	1433.454223632813	261.8969116210939	1392.953491210938	33.91614913940431	95.11915588378909	
